<svg width="290" height="245" viewBox="0 0 290 245" fill="none" xmlns="http://www.w3.org/2000/svg">
<path d="M99.847 188.6C102.947 188.262 105.75 188.944 108.256 190.645C110.746 192.298 112.468 194.574 113.42 197.471C114.793 201.652 114.414 205.462 112.281 208.903C110.18 212.28 106.518 214.83 101.295 216.552L78.0026 224.23L61.5675 174.21L84.0762 166.791C89.1572 165.116 93.5047 164.973 97.1187 166.361C100.78 167.734 103.266 170.415 104.578 174.405C105.545 177.35 105.565 180.055 104.638 182.519C103.759 184.967 102.162 186.994 99.847 188.6ZM80.3968 190.431L88.3745 187.801C90.369 187.144 91.7481 186.215 92.5118 185.016C93.3075 183.753 93.4243 182.267 92.8625 180.557C92.3006 178.847 91.3253 177.721 89.9365 177.178C88.5953 176.62 86.9274 176.67 84.933 177.327L76.9553 179.957L80.3968 190.431ZM95.9271 207.423C97.969 206.75 99.3878 205.782 100.183 204.52C101.011 203.194 101.136 201.652 100.558 199.895C99.9809 198.137 98.9347 196.955 97.4198 196.349C95.9524 195.727 94.1977 195.753 92.1558 196.426L83.3233 199.338L86.9521 210.382L95.9271 207.423ZM115.979 189.6C114.636 185.514 114.218 181.678 114.723 178.089C115.275 174.485 116.608 171.413 118.721 168.874C120.834 166.335 123.529 164.525 126.806 163.445C129.607 162.522 132.24 162.286 134.704 162.737C137.216 163.173 139.345 164.129 141.094 165.606L139.244 159.977L151.425 155.962L164.488 195.72L152.308 199.736L150.459 194.107C149.88 196.351 148.71 198.395 146.947 200.239C145.233 202.068 142.974 203.444 140.173 204.368C136.944 205.432 133.726 205.571 130.521 204.785C127.3 203.952 124.398 202.25 121.817 199.679C119.267 197.044 117.321 193.685 115.979 189.6ZM145.776 179.856C144.777 176.816 143.134 174.699 140.847 173.505C138.608 172.295 136.277 172.09 133.855 172.888C131.434 173.686 129.657 175.246 128.525 177.567C127.424 179.825 127.374 182.474 128.373 185.514C129.372 188.554 130.999 190.703 133.254 191.96C135.541 193.154 137.895 193.352 140.317 192.554C142.739 191.755 144.492 190.203 145.577 187.898C146.709 185.577 146.775 182.896 145.776 179.856ZM204.025 159.945C204.399 161.085 204.718 162.296 204.981 163.578L177.416 172.664C178.417 175.072 179.825 176.714 181.639 177.59C183.485 178.403 185.429 178.473 187.471 177.799C190.51 176.798 192.202 174.819 192.546 171.862L205.51 167.589C205.704 170.42 205.265 173.171 204.195 175.84C203.172 178.494 201.55 180.845 199.329 182.893C197.107 184.942 194.382 186.498 191.153 187.563C187.259 188.846 183.519 189.158 179.934 188.497C176.348 187.836 173.194 186.244 170.469 183.72C167.745 181.196 165.704 177.867 164.347 173.735C162.989 169.602 162.634 165.718 163.281 162.082C163.976 158.431 165.57 155.274 168.063 152.609C170.556 149.945 173.773 147.963 177.714 146.664C181.561 145.396 185.245 145.076 188.767 145.705C192.29 146.334 195.373 147.871 198.019 150.316C200.712 152.745 202.714 155.954 204.025 159.945ZM190.506 160.847C189.819 158.757 188.561 157.329 186.73 156.564C184.9 155.798 182.916 155.768 180.779 156.472C178.737 157.145 177.199 158.311 176.165 159.968C175.178 161.609 174.877 163.577 175.263 165.872L190.506 160.847ZM218.487 141.2C219.193 138.545 220.412 136.248 222.143 134.308C223.859 132.321 226.022 130.898 228.634 130.037L232.872 142.933L229.524 144.037C226.485 145.039 224.424 146.455 223.341 148.286C222.243 150.069 222.233 152.6 223.31 155.878L229.373 174.332L217.193 178.347L204.129 138.588L216.309 134.573L218.487 141.2Z" fill="#0C5551"/>
<path d="M93.1664 173.268C96.2659 172.931 99.0688 173.613 101.575 175.314C104.066 176.967 105.787 179.243 106.739 182.14C108.112 186.32 107.733 190.131 105.6 193.571C103.5 196.949 99.8376 199.498 94.6141 201.22L71.3219 208.898L54.8869 158.879L77.3955 151.459C82.4765 149.784 86.824 149.641 90.438 151.03C94.0995 152.402 96.5858 155.084 97.8968 159.074C98.8645 162.019 98.8848 164.724 97.9576 167.188C97.078 169.636 95.4809 171.663 93.1664 173.268ZM73.7161 175.1L81.6938 172.47C83.6883 171.812 85.0674 170.884 85.8311 169.685C86.6268 168.422 86.7437 166.936 86.1818 165.226C85.6199 163.516 84.6446 162.389 83.2558 161.847C81.9146 161.289 80.2467 161.338 78.2523 161.996L70.2746 164.626L73.7161 175.1ZM89.2464 192.092C91.2883 191.419 92.7071 190.451 93.5027 189.188C94.3302 187.863 94.4552 186.321 93.8777 184.563C93.3003 182.806 92.254 181.624 90.7391 181.018C89.2717 180.396 87.517 180.422 85.4751 181.095L76.6426 184.006L80.2714 195.05L89.2464 192.092ZM109.298 174.268C107.956 170.183 107.537 166.346 108.042 162.758C108.595 159.154 109.928 156.082 112.041 153.543C114.153 151.004 116.848 149.194 120.125 148.114C122.927 147.19 125.559 146.954 128.023 147.406C130.535 147.841 132.665 148.798 134.413 150.274L132.564 144.645L144.744 140.63L157.808 180.389L145.627 184.404L143.778 178.775C143.199 181.019 142.029 183.063 140.267 184.908C138.552 186.737 136.294 188.113 133.492 189.036C130.263 190.101 127.046 190.24 123.84 189.454C120.619 188.621 117.718 186.918 115.136 184.347C112.586 181.713 110.64 178.353 109.298 174.268ZM139.096 164.525C138.097 161.485 136.454 159.368 134.167 158.174C131.927 156.964 129.596 156.758 127.175 157.557C124.753 158.355 122.976 159.915 121.844 162.236C120.744 164.494 120.693 167.143 121.692 170.183C122.691 173.223 124.318 175.371 126.573 176.629C128.86 177.823 131.215 178.021 133.636 177.222C136.058 176.424 137.811 174.872 138.896 172.567C140.028 170.246 140.094 167.565 139.096 164.525ZM197.344 144.613C197.718 145.753 198.037 146.964 198.301 148.246L170.735 157.333C171.736 159.741 173.144 161.382 174.958 162.258C176.804 163.071 178.748 163.141 180.79 162.468C183.829 161.466 185.521 159.487 185.866 156.531L198.829 152.257C199.023 155.089 198.585 157.84 197.514 160.509C196.492 163.162 194.869 165.514 192.648 167.562C190.426 169.61 187.701 171.167 184.472 172.231C180.578 173.515 176.838 173.826 173.253 173.166C169.668 172.505 166.513 170.912 163.789 168.388C161.065 165.864 159.024 162.536 157.666 158.403C156.308 154.271 155.953 150.387 156.6 146.751C157.295 143.1 158.889 139.942 161.382 137.278C163.875 134.614 167.092 132.632 171.034 131.333C174.88 130.065 178.564 129.745 182.087 130.374C185.609 131.003 188.693 132.54 191.338 134.984C194.031 137.413 196.033 140.623 197.344 144.613ZM183.825 145.516C183.138 143.426 181.88 141.998 180.049 141.233C178.219 140.467 176.235 140.437 174.098 141.141C172.057 141.814 170.518 142.979 169.484 144.636C168.497 146.278 168.196 148.246 168.582 150.541L183.825 145.516ZM211.806 125.868C212.513 123.214 213.732 120.917 215.463 118.977C217.178 116.99 219.342 115.566 221.953 114.705L226.191 127.602L222.843 128.706C219.804 129.707 217.743 131.124 216.661 132.955C215.563 134.738 215.552 137.269 216.629 140.546L222.692 159.001L210.512 163.016L197.448 123.257L209.629 119.242L211.806 125.868Z" fill="white"/>
</svg>
